<svg width="250" height="250" viewBox="0 0 250 250" fill="none" xmlns="http://www.w3.org/2000/svg">
<rect width="250" height="250" fill="white"/>
<g filter="url(#filter0_d_30_31)">
<rect x="10.5" y="10.5" width="229" height="229" stroke="black" shape-rendering="crispEdges"/>
</g>
<path d="M23.184 49.6V82H21.792V45.472L48.288 78.352V46H49.68V82.528L23.184 49.6ZM57.2764 46H70.1884V47.392H58.8604V66.976H68.3164V68.368H58.8604V80.608H70.1884V82H57.2764V46ZM75.2295 46H88.1415V47.392H76.8135V66.976H86.2695V68.368H76.8135V80.608H88.1415V82H75.2295V46ZM93.1826 46H95.2466C98.9906 46 101.871 46.992 103.887 48.976C105.935 50.96 106.959 53.792 106.959 57.472C106.959 59.584 106.447 61.52 105.423 63.28C104.431 65.04 103.071 66.432 101.343 67.456C99.6146 68.448 97.7106 68.944 95.6306 68.944H95.2946L107.679 82H105.615L94.7186 70.576V82H93.1826V46ZM95.5826 67.552C97.4066 67.552 99.0706 67.104 100.575 66.208C102.079 65.312 103.263 64.112 104.127 62.608C104.991 61.072 105.423 59.376 105.423 57.52C105.423 54.288 104.543 51.792 102.783 50.032C101.055 48.272 98.5746 47.392 95.3426 47.392H94.7186V67.552H95.5826ZM29.328 138.672C25.328 138.672 22.224 137.024 20.016 133.728V131.136C20.88 133.056 22.128 134.56 23.76 135.648C25.424 136.736 27.408 137.28 29.712 137.28C31.312 137.28 32.784 136.928 34.128 136.224C35.504 135.52 36.592 134.528 37.392 133.248C38.192 131.968 38.592 130.496 38.592 128.832C38.592 127.328 38.336 126.032 37.824 124.944C37.312 123.856 36.464 122.816 35.28 121.824C34.096 120.8 32.384 119.6 30.144 118.224L28.608 117.264C27.2 116.4 26.064 115.632 25.2 114.96C24.336 114.288 23.584 113.504 22.944 112.608C22.112 111.36 21.696 109.92 21.696 108.288C21.696 106.112 22.4 104.416 23.808 103.2C25.216 101.984 27.008 101.376 29.184 101.376C32.128 101.376 34.464 102.464 36.192 104.64V107.088C35.456 105.744 34.448 104.688 33.168 103.92C31.888 103.152 30.48 102.768 28.944 102.768C27.344 102.768 26 103.264 24.912 104.256C23.824 105.248 23.28 106.576 23.28 108.24C23.28 109.872 23.776 111.28 24.768 112.464C25.792 113.616 27.504 114.88 29.904 116.256C32.848 117.984 35.136 119.552 36.768 120.96C37.92 122.016 38.752 123.184 39.264 124.464C39.808 125.744 40.08 127.168 40.08 128.736C40.08 130.72 39.616 132.464 38.688 133.968C37.76 135.472 36.48 136.64 34.848 137.472C33.216 138.272 31.376 138.672 29.328 138.672ZM45.8858 102H47.4698V122.88H72.1418V102H73.7258V138H72.1418V124.272H47.4698V138H45.8858V102ZM81.3233 102H94.2353V103.392H82.9073V122.976H92.3633V124.368H82.9073V136.608H94.2353V138H81.3233V102ZM104.796 103.392H96.4924V102H114.588V103.392H106.38V138H104.796V103.392ZM119.386 102H120.97V122.88H145.642V102H147.226V138H145.642V124.272H120.97V138H119.386V102Z" fill="black"/>
<path d="M19.6 170.36H22.98C24.38 170.36 25.5867 170.633 26.6 171.18C27.6133 171.713 28.3867 172.493 28.92 173.52C29.4533 174.547 29.72 175.773 29.72 177.2C29.72 179.333 29.1267 181 27.94 182.2C26.7533 183.4 25.1 184 22.98 184H19.6V170.36ZM22.94 182.64C24.5667 182.64 25.84 182.193 26.76 181.3C27.68 180.407 28.14 179.04 28.14 177.2C28.14 175.347 27.68 173.973 26.76 173.08C25.84 172.187 24.5667 171.74 22.94 171.74H21.1V182.64H22.94ZM36.1125 174.32C36.9525 174.32 37.7125 174.527 38.3925 174.94C39.0725 175.353 39.6058 175.92 39.9925 176.64C40.3792 177.347 40.5725 178.14 40.5725 179.02C40.5725 179.273 40.5658 179.467 40.5525 179.6H32.8525C32.9058 180.56 33.2192 181.38 33.7925 182.06C34.3658 182.74 35.1458 183.08 36.1325 183.08C36.9325 183.08 37.5925 182.933 38.1125 182.64C38.6458 182.333 39.0725 181.913 39.3925 181.38L40.4725 182.1C40.0325 182.793 39.4525 183.34 38.7325 183.74C38.0125 184.127 37.1592 184.32 36.1725 184.32C35.2658 184.32 34.4592 184.107 33.7525 183.68C33.0458 183.253 32.4925 182.66 32.0925 181.9C31.6925 181.14 31.4925 180.28 31.4925 179.32C31.4925 178.36 31.6858 177.5 32.0725 176.74C32.4725 175.98 33.0192 175.387 33.7125 174.96C34.4192 174.533 35.2192 174.32 36.1125 174.32ZM39.2125 178.48C39.0792 177.507 38.7525 176.78 38.2325 176.3C37.7125 175.807 37.0058 175.56 36.1125 175.56C35.2458 175.56 34.5325 175.84 33.9725 176.4C33.4258 176.947 33.0792 177.64 32.9325 178.48H39.2125ZM45.8803 184.32C44.9736 184.32 44.1736 184.127 43.4803 183.74C42.8003 183.353 42.2803 182.807 41.9203 182.1L43.1403 181.5C43.6336 182.553 44.6003 183.08 46.0403 183.08C46.7336 183.08 47.307 182.953 47.7603 182.7C48.2136 182.447 48.4403 182.053 48.4403 181.52C48.4403 180.973 48.2536 180.567 47.8803 180.3C47.5203 180.033 46.8803 179.86 45.9603 179.78C44.6803 179.673 43.7603 179.387 43.2003 178.92C42.6536 178.453 42.3803 177.833 42.3803 177.06C42.3803 176.193 42.6936 175.52 43.3203 175.04C43.947 174.56 44.807 174.32 45.9003 174.32C47.7536 174.32 49.0136 175.053 49.6803 176.52L48.4603 177.12C48.2336 176.587 47.9003 176.193 47.4603 175.94C47.0336 175.687 46.4803 175.56 45.8003 175.56C45.107 175.56 44.5736 175.687 44.2003 175.94C43.8403 176.193 43.6603 176.553 43.6603 177.02C43.6603 177.46 43.8536 177.82 44.2403 178.1C44.6403 178.367 45.3203 178.54 46.2803 178.62C47.467 178.727 48.347 179.02 48.9203 179.5C49.507 179.967 49.8003 180.587 49.8003 181.36C49.8003 181.987 49.6203 182.527 49.2603 182.98C48.9003 183.42 48.4203 183.753 47.8203 183.98C47.2203 184.207 46.5736 184.32 45.8803 184.32ZM52.5977 184V174.64H53.9577V184H52.5977ZM53.2777 172.82C52.971 172.82 52.711 172.713 52.4977 172.5C52.2977 172.287 52.1977 172.027 52.1977 171.72C52.1977 171.427 52.2977 171.18 52.4977 170.98C52.711 170.767 52.971 170.66 53.2777 170.66C53.571 170.66 53.8243 170.767 54.0377 170.98C54.251 171.18 54.3577 171.433 54.3577 171.74C54.3577 172.033 54.251 172.287 54.0377 172.5C53.8243 172.713 53.571 172.82 53.2777 172.82ZM65.9092 174.64V183.64C65.9092 184.48 65.7359 185.227 65.3892 185.88C65.0426 186.547 64.5559 187.067 63.9292 187.44C63.3026 187.813 62.5892 188 61.7892 188H57.9092V186.76H61.7892C62.6026 186.76 63.2626 186.467 63.7692 185.88C64.2892 185.293 64.5492 184.547 64.5492 183.64V182.62C64.1626 183.153 63.6892 183.573 63.1292 183.88C62.5692 184.173 61.9559 184.32 61.2892 184.32C60.3959 184.32 59.5959 184.107 58.8892 183.68C58.1826 183.253 57.6292 182.66 57.2292 181.9C56.8292 181.14 56.6292 180.273 56.6292 179.3C56.6292 178.34 56.8226 177.487 57.2092 176.74C57.6092 175.98 58.1559 175.387 58.8492 174.96C59.5559 174.533 60.3559 174.32 61.2492 174.32C61.9292 174.32 62.5492 174.473 63.1092 174.78C63.6826 175.073 64.1626 175.493 64.5492 176.04V174.64H65.9092ZM61.2492 183.08C61.8892 183.08 62.4559 182.92 62.9492 182.6C63.4559 182.28 63.8492 181.833 64.1292 181.26C64.4092 180.687 64.5492 180.04 64.5492 179.32C64.5492 178.6 64.4092 177.953 64.1292 177.38C63.8492 176.807 63.4559 176.36 62.9492 176.04C62.4559 175.72 61.8892 175.56 61.2492 175.56C60.6226 175.56 60.0626 175.72 59.5692 176.04C59.0759 176.36 58.6892 176.807 58.4092 177.38C58.1292 177.94 57.9892 178.58 57.9892 179.3C57.9892 180.033 58.1292 180.687 58.4092 181.26C58.6892 181.833 59.0759 182.28 59.5692 182.6C60.0626 182.92 60.6226 183.08 61.2492 183.08ZM72.8802 174.32C73.5335 174.32 74.1335 174.453 74.6802 174.72C75.2402 174.987 75.6802 175.38 76.0002 175.9C76.3335 176.42 76.5002 177.033 76.5002 177.74V184H75.1402V178.34C75.1402 176.487 74.3135 175.56 72.6602 175.56C71.7002 175.56 70.9802 175.9 70.5002 176.58C70.0202 177.26 69.7802 178.173 69.7802 179.32V184H68.4202V174.64H69.7802V176.2C70.1002 175.6 70.5202 175.14 71.0402 174.82C71.5735 174.487 72.1868 174.32 72.8802 174.32ZM92.3155 174.64V184H90.9555V182.62C90.5688 183.153 90.0955 183.573 89.5355 183.88C88.9755 184.173 88.3621 184.32 87.6955 184.32C86.8021 184.32 86.0021 184.107 85.2955 183.68C84.5888 183.253 84.0355 182.66 83.6355 181.9C83.2355 181.14 83.0355 180.273 83.0355 179.3C83.0355 178.34 83.2288 177.487 83.6155 176.74C84.0155 175.98 84.5621 175.387 85.2555 174.96C85.9621 174.533 86.7621 174.32 87.6555 174.32C88.3355 174.32 88.9555 174.473 89.5155 174.78C90.0888 175.073 90.5688 175.493 90.9555 176.04V174.64H92.3155ZM87.6555 183.08C88.2955 183.08 88.8621 182.92 89.3555 182.6C89.8621 182.28 90.2555 181.833 90.5355 181.26C90.8155 180.687 90.9555 180.04 90.9555 179.32C90.9555 178.6 90.8155 177.953 90.5355 177.38C90.2555 176.807 89.8621 176.36 89.3555 176.04C88.8621 175.72 88.2955 175.56 87.6555 175.56C87.0288 175.56 86.4688 175.72 85.9755 176.04C85.4821 176.36 85.0955 176.807 84.8155 177.38C84.5355 177.94 84.3955 178.58 84.3955 179.3C84.3955 180.033 84.5355 180.687 84.8155 181.26C85.0955 181.833 85.4821 182.28 85.9755 182.6C86.4688 182.92 87.0288 183.08 87.6555 183.08ZM99.2864 174.32C99.9397 174.32 100.54 174.453 101.086 174.72C101.646 174.987 102.086 175.38 102.406 175.9C102.74 176.42 102.906 177.033 102.906 177.74V184H101.546V178.34C101.546 176.487 100.72 175.56 99.0664 175.56C98.1064 175.56 97.3864 175.9 96.9064 176.58C96.4264 177.26 96.1864 178.173 96.1864 179.32V184H94.8264V174.64H96.1864V176.2C96.5064 175.6 96.9264 175.14 97.4464 174.82C97.9797 174.487 98.5931 174.32 99.2864 174.32ZM114.269 169.48V184H112.909V182.62C112.522 183.153 112.049 183.573 111.489 183.88C110.929 184.173 110.315 184.32 109.649 184.32C108.755 184.32 107.955 184.107 107.249 183.68C106.542 183.253 105.989 182.66 105.589 181.9C105.189 181.14 104.989 180.273 104.989 179.3C104.989 178.34 105.182 177.487 105.569 176.74C105.969 175.98 106.515 175.387 107.209 174.96C107.915 174.533 108.715 174.32 109.609 174.32C110.289 174.32 110.909 174.473 111.469 174.78C112.042 175.073 112.522 175.493 112.909 176.04V169.48H114.269ZM109.609 183.08C110.249 183.08 110.815 182.92 111.309 182.6C111.815 182.28 112.209 181.833 112.489 181.26C112.769 180.687 112.909 180.04 112.909 179.32C112.909 178.6 112.769 177.953 112.489 177.38C112.209 176.807 111.815 176.36 111.309 176.04C110.815 175.72 110.249 175.56 109.609 175.56C108.982 175.56 108.422 175.72 107.929 176.04C107.435 176.36 107.049 176.807 106.769 177.38C106.489 177.94 106.349 178.58 106.349 179.3C106.349 180.033 106.489 180.687 106.769 181.26C107.049 181.833 107.435 182.28 107.929 182.6C108.422 182.92 108.982 183.08 109.609 183.08ZM19.6 196.36H22.98C24.38 196.36 25.5867 196.633 26.6 197.18C27.6133 197.713 28.3867 198.493 28.92 199.52C29.4533 200.547 29.72 201.773 29.72 203.2C29.72 205.333 29.1267 207 27.94 208.2C26.7533 209.4 25.1 210 22.98 210H19.6V196.36ZM22.94 208.64C24.5667 208.64 25.84 208.193 26.76 207.3C27.68 206.407 28.14 205.04 28.14 203.2C28.14 201.347 27.68 199.973 26.76 199.08C25.84 198.187 24.5667 197.74 22.94 197.74H21.1V208.64H22.94ZM36.1125 200.32C36.9525 200.32 37.7125 200.527 38.3925 200.94C39.0725 201.353 39.6058 201.92 39.9925 202.64C40.3792 203.347 40.5725 204.14 40.5725 205.02C40.5725 205.273 40.5658 205.467 40.5525 205.6H32.8525C32.9058 206.56 33.2192 207.38 33.7925 208.06C34.3658 208.74 35.1458 209.08 36.1325 209.08C36.9325 209.08 37.5925 208.933 38.1125 208.64C38.6458 208.333 39.0725 207.913 39.3925 207.38L40.4725 208.1C40.0325 208.793 39.4525 209.34 38.7325 209.74C38.0125 210.127 37.1592 210.32 36.1725 210.32C35.2658 210.32 34.4592 210.107 33.7525 209.68C33.0458 209.253 32.4925 208.66 32.0925 207.9C31.6925 207.14 31.4925 206.28 31.4925 205.32C31.4925 204.36 31.6858 203.5 32.0725 202.74C32.4725 201.98 33.0192 201.387 33.7125 200.96C34.4192 200.533 35.2192 200.32 36.1125 200.32ZM39.2125 204.48C39.0792 203.507 38.7525 202.78 38.2325 202.3C37.7125 201.807 37.0058 201.56 36.1125 201.56C35.2458 201.56 34.5325 201.84 33.9725 202.4C33.4258 202.947 33.0792 203.64 32.9325 204.48H39.2125ZM48.2497 200.64H49.6297L46.2297 210H44.7297L41.3497 200.64H42.7697L45.5297 208.54L48.2497 200.64ZM54.9406 200.32C55.7806 200.32 56.5406 200.527 57.2206 200.94C57.9006 201.353 58.434 201.92 58.8206 202.64C59.2073 203.347 59.4006 204.14 59.4006 205.02C59.4006 205.273 59.394 205.467 59.3806 205.6H51.6806C51.734 206.56 52.0473 207.38 52.6206 208.06C53.194 208.74 53.974 209.08 54.9606 209.08C55.7606 209.08 56.4206 208.933 56.9406 208.64C57.474 208.333 57.9006 207.913 58.2206 207.38L59.3006 208.1C58.8606 208.793 58.2806 209.34 57.5606 209.74C56.8406 210.127 55.9873 210.32 55.0006 210.32C54.094 210.32 53.2873 210.107 52.5806 209.68C51.874 209.253 51.3206 208.66 50.9206 207.9C50.5206 207.14 50.3206 206.28 50.3206 205.32C50.3206 204.36 50.514 203.5 50.9006 202.74C51.3006 201.98 51.8473 201.387 52.5406 200.96C53.2473 200.533 54.0473 200.32 54.9406 200.32ZM58.0406 204.48C57.9073 203.507 57.5806 202.78 57.0606 202.3C56.5406 201.807 55.834 201.56 54.9406 201.56C54.074 201.56 53.3606 201.84 52.8006 202.4C52.254 202.947 51.9073 203.64 51.7606 204.48H58.0406ZM61.5084 210V195.48H62.8684V210H61.5084ZM69.5509 210.32C68.6576 210.32 67.8576 210.107 67.1509 209.68C66.4443 209.253 65.8909 208.66 65.4909 207.9C65.0909 207.127 64.8909 206.26 64.8909 205.3C64.8909 204.34 65.0843 203.487 65.4709 202.74C65.8709 201.98 66.4176 201.387 67.1109 200.96C67.8176 200.533 68.6176 200.32 69.5109 200.32C70.4043 200.32 71.2043 200.533 71.9109 200.96C72.6176 201.387 73.1709 201.98 73.5709 202.74C73.9709 203.5 74.1709 204.36 74.1709 205.32C74.1709 206.28 73.9709 207.14 73.5709 207.9C73.1843 208.66 72.6376 209.253 71.9309 209.68C71.2376 210.107 70.4443 210.32 69.5509 210.32ZM69.5109 209.08C70.1509 209.08 70.7176 208.92 71.2109 208.6C71.7176 208.28 72.1109 207.833 72.3909 207.26C72.6709 206.687 72.8109 206.04 72.8109 205.32C72.8109 204.6 72.6709 203.953 72.3909 203.38C72.1109 202.807 71.7176 202.36 71.2109 202.04C70.7176 201.72 70.1509 201.56 69.5109 201.56C68.8843 201.56 68.3243 201.72 67.8309 202.04C67.3376 202.36 66.9509 202.807 66.6709 203.38C66.3909 203.94 66.2509 204.58 66.2509 205.3C66.2509 206.033 66.3909 206.687 66.6709 207.26C66.9509 207.833 67.3376 208.28 67.8309 208.6C68.3243 208.92 68.8843 209.08 69.5109 209.08ZM80.7359 200.32C81.6293 200.32 82.4293 200.533 83.1359 200.96C83.8426 201.387 84.3959 201.98 84.7959 202.74C85.1959 203.5 85.3959 204.367 85.3959 205.34C85.3959 206.3 85.1959 207.16 84.7959 207.92C84.4093 208.667 83.8626 209.253 83.1559 209.68C82.4626 210.107 81.6693 210.32 80.7759 210.32C80.0959 210.32 79.4693 210.173 78.8959 209.88C78.3359 209.573 77.8626 209.147 77.4759 208.6V214H76.1159V200.64H77.4759V202.02C77.8626 201.487 78.3359 201.073 78.8959 200.78C79.4559 200.473 80.0693 200.32 80.7359 200.32ZM80.7759 209.08C81.4026 209.08 81.9626 208.92 82.4559 208.6C82.9493 208.28 83.3359 207.84 83.6159 207.28C83.8959 206.707 84.0359 206.06 84.0359 205.34C84.0359 204.607 83.8959 203.953 83.6159 203.38C83.3359 202.807 82.9493 202.36 82.4559 202.04C81.9626 201.72 81.4026 201.56 80.7759 201.56C80.1359 201.56 79.5626 201.72 79.0559 202.04C78.5626 202.36 78.1759 202.807 77.8959 203.38C77.6159 203.953 77.4759 204.6 77.4759 205.32C77.4759 206.04 77.6159 206.687 77.8959 207.26C78.1759 207.833 78.5626 208.28 79.0559 208.6C79.5626 208.92 80.1359 209.08 80.7759 209.08ZM97.2669 200.32C98.1335 200.32 98.8535 200.627 99.4269 201.24C100 201.84 100.287 202.673 100.287 203.74V210H98.9269V204.34C98.9269 203.353 98.7402 202.647 98.3669 202.22C97.9935 201.78 97.5069 201.56 96.9069 201.56C96.1735 201.56 95.6002 201.847 95.1869 202.42C94.7869 202.98 94.5535 203.747 94.4869 204.72V210H93.1269V204.34C93.1269 203.353 92.9402 202.647 92.5669 202.22C92.1935 201.78 91.7069 201.56 91.1069 201.56C90.2935 201.56 89.6802 201.9 89.2669 202.58C88.8669 203.26 88.6669 204.173 88.6669 205.32V210H87.3069V200.64H88.6669V202.1C88.9735 201.527 89.3602 201.087 89.8269 200.78C90.3069 200.473 90.8535 200.32 91.4669 200.32C92.1469 200.32 92.7402 200.507 93.2469 200.88C93.7535 201.24 94.1069 201.76 94.3069 202.44C94.6002 201.773 95.0002 201.253 95.5069 200.88C96.0135 200.507 96.6002 200.32 97.2669 200.32ZM106.738 200.32C107.578 200.32 108.338 200.527 109.018 200.94C109.698 201.353 110.231 201.92 110.618 202.64C111.004 203.347 111.198 204.14 111.198 205.02C111.198 205.273 111.191 205.467 111.178 205.6H103.478C103.531 206.56 103.844 207.38 104.418 208.06C104.991 208.74 105.771 209.08 106.758 209.08C107.558 209.08 108.218 208.933 108.738 208.64C109.271 208.333 109.698 207.913 110.018 207.38L111.098 208.1C110.658 208.793 110.078 209.34 109.358 209.74C108.638 210.127 107.784 210.32 106.798 210.32C105.891 210.32 105.084 210.107 104.377 209.68C103.671 209.253 103.118 208.66 102.718 207.9C102.318 207.14 102.118 206.28 102.118 205.32C102.118 204.36 102.311 203.5 102.698 202.74C103.098 201.98 103.644 201.387 104.338 200.96C105.044 200.533 105.844 200.32 106.738 200.32ZM109.838 204.48C109.704 203.507 109.378 202.78 108.858 202.3C108.338 201.807 107.631 201.56 106.738 201.56C105.871 201.56 105.158 201.84 104.598 202.4C104.051 202.947 103.704 203.64 103.558 204.48H109.838ZM117.665 200.32C118.319 200.32 118.919 200.453 119.465 200.72C120.025 200.987 120.465 201.38 120.785 201.9C121.119 202.42 121.285 203.033 121.285 203.74V210H119.925V204.34C119.925 202.487 119.099 201.56 117.445 201.56C116.485 201.56 115.765 201.9 115.285 202.58C114.805 203.26 114.565 204.173 114.565 205.32V210H113.205V200.64H114.565V202.2C114.885 201.6 115.305 201.14 115.825 200.82C116.359 200.487 116.972 200.32 117.665 200.32ZM124.448 210V201.88H122.848V200.64H124.448V197.54H125.808V200.64H127.967V201.88H125.808V210H124.448Z" fill="black"/>
<path d="M17 156H233" stroke="black"/>
<defs>
<filter id="filter0_d_30_31" x="7" y="7" width="238" height="238" filterUnits="userSpaceOnUse" color-interpolation-filters="sRGB">
<feFlood flood-opacity="0" result="BackgroundImageFix"/>
<feColorMatrix in="SourceAlpha" type="matrix" values="0 0 0 0 0 0 0 0 0 0 0 0 0 0 0 0 0 0 127 0" result="hardAlpha"/>
<feMorphology radius="1" operator="dilate" in="SourceAlpha" result="effect1_dropShadow_30_31"/>
<feOffset dx="1" dy="1"/>
<feGaussianBlur stdDeviation="1.5"/>
<feComposite in2="hardAlpha" operator="out"/>
<feColorMatrix type="matrix" values="0 0 0 0 0 0 0 0 0 0 0 0 0 0 0 0 0 0 0.5 0"/>
<feBlend mode="normal" in2="BackgroundImageFix" result="effect1_dropShadow_30_31"/>
<feBlend mode="normal" in="SourceGraphic" in2="effect1_dropShadow_30_31" result="shape"/>
</filter>
</defs>
</svg>
